<svg width="213" height="56" viewBox="0 0 213 56" fill="none" xmlns="http://www.w3.org/2000/svg">
<path d="M139.475 32.8485L136.346 36.1005V44.7489H132.971V19.1552H136.346V31.8114L147.719 19.1552H151.797L141.725 30.4579L152.588 44.7489H148.545L139.475 32.8485ZM159.162 44.7489H155.787V19.1552H159.162V44.7489ZM185.02 44.7489H181.627L168.742 25.0262V44.7489H165.35V19.1552H168.742L181.662 38.9657V19.1552H185.02V44.7489ZM210.701 32.7782C210.701 35.286 210.279 37.4774 209.436 39.3524C208.592 41.2157 207.396 42.6395 205.85 43.6239C204.303 44.6083 202.498 45.1005 200.436 45.1005C198.42 45.1005 196.633 44.6083 195.074 43.6239C193.516 42.6278 192.303 41.2157 191.436 39.3876C190.58 37.5477 190.141 35.4208 190.117 33.0067V31.161C190.117 28.7001 190.545 26.5262 191.4 24.6395C192.256 22.7528 193.463 21.3114 195.021 20.3153C196.592 19.3075 198.385 18.8036 200.4 18.8036C202.451 18.8036 204.256 19.3016 205.814 20.2977C207.385 21.2821 208.592 22.7177 209.436 24.6044C210.279 26.4794 210.701 28.6649 210.701 31.161V32.7782ZM207.344 31.1259C207.344 28.0907 206.734 25.7645 205.516 24.1473C204.297 22.5184 202.592 21.704 200.4 21.704C198.268 21.704 196.586 22.5184 195.355 24.1473C194.137 25.7645 193.51 28.0145 193.475 30.8973V32.7782C193.475 35.7196 194.09 38.0341 195.32 39.7216C196.562 41.3973 198.268 42.2352 200.436 42.2352C202.615 42.2352 204.303 41.4442 205.498 39.8622C206.693 38.2684 207.309 35.9891 207.344 33.0243V31.1259Z" fill="black"/>
<path d="M6.3457 34.7294V44.7489H2.9707V19.1552H12.4102C15.2109 19.1552 17.4023 19.87 18.9844 21.2997C20.5781 22.7294 21.375 24.6219 21.375 26.9774C21.375 29.4618 20.5957 31.3778 19.0371 32.7255C17.4902 34.0614 15.2695 34.7294 12.375 34.7294H6.3457ZM6.3457 31.9696H12.4102C14.2148 31.9696 15.5977 31.5477 16.5586 30.704C17.5195 29.8485 18 28.618 18 27.0126C18 25.4891 17.5195 24.2704 16.5586 23.3563C15.5977 22.4423 14.2793 21.9677 12.6035 21.9325H6.3457V31.9696ZM35.0684 34.3954H29.0566V44.7489H25.6641V19.1552H34.1367C37.0195 19.1552 39.2344 19.8114 40.7812 21.1239C42.3398 22.4364 43.1191 24.3466 43.1191 26.8544C43.1191 28.4481 42.6855 29.8368 41.8184 31.0204C40.9629 32.204 39.7676 33.0887 38.2324 33.6747L44.2441 44.538V44.7489H40.623L35.0684 34.3954ZM29.0566 31.6356H34.2422C35.918 31.6356 37.248 31.202 38.2324 30.3348C39.2285 29.4677 39.7266 28.3075 39.7266 26.8544C39.7266 25.2723 39.252 24.0594 38.3027 23.2157C37.3652 22.3719 36.0059 21.9442 34.2246 21.9325H29.0566V31.6356ZM67.5527 32.7782C67.5527 35.286 67.1309 37.4774 66.2871 39.3524C65.4434 41.2157 64.248 42.6395 62.7012 43.6239C61.1543 44.6083 59.3496 45.1005 57.2871 45.1005C55.2715 45.1005 53.4844 44.6083 51.9258 43.6239C50.3672 42.6278 49.1543 41.2157 48.2871 39.3876C47.4316 37.5477 46.9922 35.4208 46.9688 33.0067V31.161C46.9688 28.7001 47.3965 26.5262 48.252 24.6395C49.1074 22.7528 50.3145 21.3114 51.873 20.3153C53.4434 19.3075 55.2363 18.8036 57.252 18.8036C59.3027 18.8036 61.1074 19.3016 62.666 20.2977C64.2363 21.2821 65.4434 22.7177 66.2871 24.6044C67.1309 26.4794 67.5527 28.6649 67.5527 31.161V32.7782ZM64.1953 31.1259C64.1953 28.0907 63.5859 25.7645 62.3672 24.1473C61.1484 22.5184 59.4434 21.704 57.252 21.704C55.1191 21.704 53.4375 22.5184 52.207 24.1473C50.9883 25.7645 50.3613 28.0145 50.3262 30.8973V32.7782C50.3262 35.7196 50.9414 38.0341 52.1719 39.7216C53.4141 41.3973 55.1191 42.2352 57.2871 42.2352C59.4668 42.2352 61.1543 41.4442 62.3496 39.8622C63.5449 38.2684 64.1602 35.9891 64.1953 33.0243V31.1259Z" fill="black"/>
<path d="M122.4 16.4409H100.8L121.5 11.1305C122 11.015 122.4 10.3224 122.3 9.74515L120.6 0.85593C120.5 0.509596 120.4 0.278707 120.2 0.163263C120 0.0478181 119.7 -0.0676256 119.4 0.0478188L80.7 9.86059C79.9 9.39882 79 9.16793 78.1 9.16793C74.7 9.16793 72 12.2849 72 16.21C72 19.4425 73.8 22.0977 76.3 22.9058V26.4846V53.614C76.3 54.3067 76.7 54.7685 77.3 54.7685H122.3C122.9 54.7685 123.3 54.3067 123.3 53.614V26.6V17.4799C123.4 16.9027 122.9 16.4409 122.4 16.4409ZM78.4 23.3676C80.1 23.2521 81.8 22.444 82.8 20.9433L82.9 20.8278C83.4 20.1351 83.7 19.4425 83.9 18.7498H84.8L88.3 25.561H78.4V23.3676ZM92.5 9.28337L90.5 16.4409H87.1L88.9 10.2069L92.5 9.28337ZM98.4 7.66715L96.3 15.171L92.6 16.0946L94.7 8.59071L98.4 7.66715ZM104.3 6.16637L102.2 13.6703L98.5 14.5938L100.6 7.08993L104.3 6.16637ZM110.2 4.6656L108.1 12.1695L104.4 13.093L106.5 5.58915L110.2 4.6656ZM116.2 3.16482L114.1 10.6687L110.4 11.5923L112.5 4.08837L116.2 3.16482ZM84.9 16.4409H84.2V16.3255C84.2 14.5938 83.7 12.9776 82.8 11.8232L86.5 10.8996L84.9 16.4409ZM90.6 25.4456L87.1 18.6344H90.6C90.7 18.6344 90.7 18.7498 90.8 18.7498C90.9 18.7498 90.9 18.7498 91 18.7498L94.4 25.4456H90.6ZM96.7 25.4456L93.2 18.6344H96.9L100.4 25.4456H96.7ZM102.8 25.4456L99.3 18.6344H103L106.5 25.4456H102.8ZM108.8 25.4456L105.3 18.6344H109L112.5 25.4456H108.8ZM114.9 25.4456L111.4 18.6344H115.1L118.6 25.4456H114.9ZM121.4 25.4456H121L117.5 18.6344H121.4V25.4456ZM120.1 9.05248L116.3 9.97604L118.4 2.47215L118.8 2.35671L120.1 9.05248ZM74 16.3255C74 13.6703 75.8 11.5923 78.1 11.5923C78.8 11.5923 79.5 11.8232 80.1 12.1695C81.4 12.9776 82.2 14.5938 82.2 16.3255C82.2 16.6718 82.2 17.0182 82.1 17.3645C82 18.0571 81.7 18.7498 81.3 19.327L81.2 19.4425C80.3 20.7124 78.8 21.405 77.4 21.0587C75.5 20.5969 74 18.6344 74 16.3255ZM78.4 52.575V27.7545H121.4V52.575H78.4Z" fill="black"/>
</svg>
