<svg width="19" height="20" viewBox="0 0 19 20" fill="none" xmlns="http://www.w3.org/2000/svg">
<path fill-rule="evenodd" clip-rule="evenodd" d="M2 8.58143C2 4.94097 4.93203 2 8.53631 2C12.1406 2 15.0726 4.94097 15.0726 8.58143C15.0726 10.3121 14.41 11.8847 13.3274 13.0584C13.2728 13.1176 13.211 13.1698 13.1539 13.2266C13.0911 13.289 13.0344 13.3574 12.9697 13.4176C11.8038 14.5014 10.2456 15.1629 8.53631 15.1629C4.93203 15.1629 2 12.2219 2 8.58143ZM17.2475 18.7632C15.2981 16.8022 12.1371 16.848 9.38554 17.121C9.10623 17.1487 8.82294 17.1629 8.53631 17.1629C3.81622 17.1629 0 13.3152 0 8.58143C0 3.84768 3.81622 0 8.53631 0C13.2564 0 17.0726 3.84768 17.0726 8.58143C17.0726 8.87375 17.0581 9.16268 17.0297 9.44754C16.7538 12.2125 16.707 15.3825 18.6659 17.3532C19.0553 17.7449 19.0534 18.3781 18.6617 18.7674C18.27 19.1568 17.6369 19.1549 17.2475 18.7632Z" fill="#6F6363"/>
</svg>
